<svg width="81" height="82" viewBox="0 0 81 82" fill="none" xmlns="http://www.w3.org/2000/svg">
<path d="M40.762 30.4228L29.0735 23.9383H52.4506L40.762 30.4228Z" fill="#F21F85"/>
<path d="M28.2308 59.5049L35.889 81.4153L1.07308 59.1216L28.2308 59.5049Z" fill="#F28E19"/>
<path d="M52.8189 23.1454L44.3394 0.515675L81 24.3785L52.8189 23.1454Z" fill="#F21F85"/>
<path d="M14.4113 41.7708L0.914491 58.1499L0.914493 25.3916L14.4113 41.7708Z" fill="#EF1C35"/>
<path d="M67.1132 41.7709L80.61 25.3917V58.1501L67.1132 41.7709Z" fill="#FCFF51"/>
<path d="M52.8786 59.3584L80.7382 59.3956L43.5665 81.4351L52.8786 59.3584Z" fill="#15D0BA"/>
<path d="M29.0751 23.2324L0 23.9158L39.6027 0.435059L29.0751 23.2324Z" fill="#EC5312"/>
<path d="M52.3281 35.1637L52.7757 24.0736L65.0149 39.7484L52.3281 35.1637Z" fill="#EC5312"/>
<path d="M28.9141 47.1704L28.384 58.2579L16.2615 42.5191L28.9141 47.1704Z" fill="#FCFF51"/>
<path d="M40.7625 52.0375L52.451 58.5219H29.0739L40.7625 52.0375Z" fill="#15D0BA"/>
<path d="M52.0723 47.2132L64.6293 42.3052L52.8319 58.2845L52.0723 47.2132Z" fill="#EF1C35"/>
<path d="M29.2581 35.1215L16.6648 39.9635L28.5807 24.0465L29.2581 35.1215Z" fill="#F28E19"/>
</svg>
