<svg width="77" height="90" viewBox="0 0 77 90" fill="none" xmlns="http://www.w3.org/2000/svg">
<path d="M39.0076 33.6311L28.0405 26.5062L49.9746 26.5062L39.0076 33.6311Z" fill="#F21F85"/>
<path d="M27.2499 65.5855L34.4354 89.6599L1.76856 65.1644L27.2499 65.5855Z" fill="#F28E19"/>
<path d="M50.3202 25.635L42.3641 0.770219L76.7617 26.9899L50.3202 25.635Z" fill="#F21F85"/>
<path d="M14.2834 46.0999L1.61976 64.0968L1.61976 28.103L14.2834 46.0999Z" fill="#EF1C35"/>
<path d="M63.7321 46.1L76.3958 28.1032V64.0969L63.7321 46.1Z" fill="#FCFF51"/>
<path d="M50.3762 65.4246L76.5161 65.4655L41.6389 89.6816L50.3762 65.4246Z" fill="#15D0BA"/>
<path d="M28.0421 25.7305L0.761719 26.4815L37.9198 0.681641L28.0421 25.7305Z" fill="#EC5312"/>
<path d="M49.8597 38.8402L50.2797 26.6549L61.7634 43.8778L49.8597 38.8402Z" fill="#EC5312"/>
<path d="M27.891 52.0328L27.3937 64.2154L16.0195 46.9222L27.891 52.0328Z" fill="#FCFF51"/>
<path d="M39.008 57.3806L49.975 64.5055H28.0409L39.008 57.3806Z" fill="#15D0BA"/>
<path d="M49.6197 52.0798L61.4016 46.6871L50.3324 64.2446L49.6197 52.0798Z" fill="#EF1C35"/>
<path d="M28.2137 38.7939L16.3979 44.1141L27.5782 26.6251L28.2137 38.7939Z" fill="#F28E19"/>
</svg>
