<svg width="183" height="20" viewBox="0 0 183 20" fill="none" xmlns="http://www.w3.org/2000/svg">
<path d="M15.7553 5.78488C15.778 5.78488 15.7894 5.81794 15.7894 5.88406C15.7894 5.95018 15.778 5.98324 15.7553 5.98324C15.3456 5.98324 14.9701 6.13201 14.6287 6.42955C14.2873 6.72709 14.0028 7.15688 13.7752 7.7189L10.4637 16.0997C10.4523 16.1437 10.3897 16.1658 10.2759 16.1658C10.1621 16.1658 10.0995 16.1437 10.0881 16.0997L7.88616 11.5374L6.09385 16.0997C6.08247 16.1437 6.01988 16.1658 5.90609 16.1658C5.79229 16.1658 5.7297 16.1437 5.71832 16.0997L1.39971 7.15687C1.16073 6.67199 0.955899 6.35792 0.785202 6.21466C0.625886 6.06038 0.381221 5.98324 0.0512088 5.98324C0.0170696 5.98324 0 5.95018 0 5.88406C0 5.81794 0.0170696 5.78488 0.0512088 5.78488L0.495019 5.80141C0.745373 5.82345 1.02987 5.83447 1.3485 5.83447C1.98577 5.83447 2.56613 5.82345 3.0896 5.80141C3.24892 5.79039 3.44806 5.78488 3.68704 5.78488C3.72118 5.78488 3.73825 5.81794 3.73825 5.88406C3.73825 5.95018 3.72118 5.98324 3.68704 5.98324C3.37978 5.98324 3.15788 6.0163 3.02132 6.08242C2.89614 6.13752 2.83356 6.24772 2.83356 6.41302C2.83356 6.60036 2.93597 6.90892 3.14081 7.33871L6.40111 14.0665L7.63012 10.9919L5.76953 7.15687C5.56469 6.74913 5.37124 6.45159 5.18916 6.26425C5.01847 6.07691 4.81363 5.98324 4.57466 5.98324C4.54052 5.98324 4.52345 5.95018 4.52345 5.88406C4.52345 5.81794 4.54052 5.78488 4.57466 5.78488L4.98433 5.80141C5.23468 5.82345 5.48504 5.83447 5.73539 5.83447C6.27024 5.83447 6.7425 5.82345 7.15217 5.80141C7.26597 5.79039 7.4139 5.78488 7.59598 5.78488C7.63012 5.78488 7.64719 5.81794 7.64719 5.88406C7.64719 5.95018 7.63012 5.98324 7.59598 5.98324C7.4139 5.98324 7.28304 6.00528 7.20338 6.04936C7.1351 6.08242 7.10096 6.14854 7.10096 6.24772C7.10096 6.42404 7.23752 6.7877 7.51063 7.33871L8.43239 9.22314L9.0469 7.65278C9.25173 7.13483 9.35415 6.74362 9.35415 6.47914C9.35415 6.14854 9.18345 5.98324 8.84206 5.98324C8.80792 5.98324 8.79085 5.95018 8.79085 5.88406C8.79085 5.81794 8.80792 5.78488 8.84206 5.78488C8.94448 5.78488 9.06397 5.7959 9.20052 5.81794C9.33708 5.82896 9.58743 5.83447 9.95159 5.83447C10.1564 5.83447 10.3954 5.82345 10.6685 5.80141L11.3342 5.78488C11.357 5.78488 11.3684 5.81794 11.3684 5.88406C11.3684 5.95018 11.357 5.98324 11.3342 5.98324C10.9473 5.98324 10.6059 6.12099 10.31 6.39649C10.0142 6.67199 9.74675 7.11279 9.50778 7.7189L8.68843 9.76863L10.788 14.0665L13.2802 7.76849C13.394 7.48197 13.4509 7.21198 13.4509 6.95851C13.4509 6.64995 13.3541 6.41302 13.1607 6.24772C12.9786 6.0714 12.7169 5.98324 12.3755 5.98324C12.3413 5.98324 12.3243 5.95018 12.3243 5.88406C12.3243 5.81794 12.3413 5.78488 12.3755 5.78488L13.1265 5.80141C13.5362 5.82345 13.906 5.83447 14.2361 5.83447C14.4637 5.83447 14.7254 5.82345 15.0213 5.80141L15.7553 5.78488Z" fill="white"/>
<path d="M24.0164 13.5375C24.0164 13.5155 24.0392 13.5044 24.0847 13.5044C24.1188 13.5044 24.1473 13.5155 24.17 13.5375C24.2042 13.5485 24.2213 13.5595 24.2213 13.5706C24.1075 14.4081 24.0506 15.174 24.0506 15.8682C24.0506 15.9564 24.0335 16.0225 23.9993 16.0666C23.9652 16.0997 23.8969 16.1162 23.7945 16.1162H16.3863C16.3522 16.1162 16.3351 16.0831 16.3351 16.017C16.3351 15.9509 16.3522 15.9178 16.3863 15.9178C16.7732 15.9178 17.052 15.8903 17.2227 15.8352C17.4048 15.7801 17.5243 15.6754 17.5812 15.5211C17.6494 15.3558 17.6836 15.1079 17.6836 14.7773V7.12381C17.6836 6.79321 17.6494 6.55077 17.5812 6.39649C17.5243 6.24221 17.4048 6.13752 17.2227 6.08242C17.0406 6.0163 16.7618 5.98324 16.3863 5.98324C16.3522 5.98324 16.3351 5.95018 16.3351 5.88406C16.3351 5.81794 16.3522 5.78488 16.3863 5.78488H23.4873C23.6011 5.78488 23.658 5.83447 23.658 5.93365L23.6921 8.08256C23.6921 8.1046 23.658 8.12113 23.5897 8.13215C23.5328 8.14317 23.4986 8.13215 23.4873 8.09909C23.2141 6.8428 22.4233 6.21466 21.1146 6.21466H20.4318C20.0221 6.21466 19.7319 6.28629 19.5612 6.42955C19.3905 6.57281 19.3052 6.81525 19.3052 7.15687V10.529H20.9439C22.1957 10.529 22.8215 10.1213 22.8215 9.30579C22.8215 9.27273 22.85 9.2562 22.9069 9.2562C22.9752 9.2562 23.0093 9.27273 23.0093 9.30579L22.9922 10.7439L23.0093 11.5208C23.0321 11.8735 23.0434 12.16 23.0434 12.3804C23.0434 12.4024 23.0093 12.4134 22.941 12.4134C22.8728 12.4134 22.8386 12.4024 22.8386 12.3804C22.8386 11.4327 22.2013 10.9588 20.9268 10.9588H19.3052V14.7111C19.3052 15.0748 19.3735 15.3283 19.51 15.4715C19.658 15.6148 19.914 15.6864 20.2782 15.6864H21.1146C22.6395 15.6864 23.6067 14.9701 24.0164 13.5375Z" fill="white"/>
<path d="M30.9958 10.3141C31.9289 10.4133 32.6743 10.7164 33.2319 11.2233C33.7895 11.7302 34.0683 12.3583 34.0683 13.1077C34.0683 13.6808 33.9033 14.2042 33.5733 14.6781C33.2546 15.1409 32.8051 15.5101 32.2248 15.7856C31.6558 16.0501 31.0185 16.1823 30.313 16.1823C29.983 16.1823 29.6017 16.1658 29.1693 16.1327C29.0214 16.1217 28.8336 16.1107 28.606 16.0997C28.3784 16.0886 28.1224 16.0831 27.8379 16.0831L26.6089 16.0997C26.3926 16.1107 26.0968 16.1162 25.7212 16.1162C25.6871 16.1162 25.67 16.0831 25.67 16.017C25.67 15.9509 25.6871 15.9178 25.7212 15.9178C26.0854 15.9178 26.3585 15.8903 26.5406 15.8352C26.7227 15.7691 26.8478 15.6589 26.9161 15.5046C26.9958 15.3503 27.0356 15.1079 27.0356 14.7773V7.12381C27.0356 6.80423 26.9958 6.5673 26.9161 6.41302C26.8478 6.24772 26.7227 6.13752 26.5406 6.08242C26.3699 6.0163 26.1025 5.98324 25.7383 5.98324C25.7156 5.98324 25.7042 5.95018 25.7042 5.88406C25.7042 5.81794 25.7156 5.78488 25.7383 5.78488L26.6259 5.80141C27.1266 5.82345 27.5306 5.83447 27.8379 5.83447C28.1565 5.83447 28.4922 5.81794 28.845 5.78488C28.9702 5.77386 29.1181 5.76284 29.2888 5.75182C29.4709 5.7408 29.6757 5.73529 29.9033 5.73529C30.9161 5.73529 31.6899 5.92814 32.2248 6.31384C32.771 6.68852 33.0441 7.21197 33.0441 7.8842C33.0441 8.40214 32.862 8.87601 32.4979 9.30579C32.1451 9.73557 31.6444 10.0717 30.9958 10.3141ZM29.6131 6.06589C29.249 6.06589 28.9986 6.13752 28.8621 6.28078C28.7369 6.42404 28.6743 6.71607 28.6743 7.15687V10.2976L29.3912 10.3141C30.0626 10.3141 30.569 10.1047 30.9104 9.68598C31.2518 9.2562 31.4225 8.70519 31.4225 8.03297C31.4225 7.40483 31.2689 6.91994 30.9616 6.57832C30.6544 6.2367 30.2049 6.06589 29.6131 6.06589ZM30.0399 15.8021C31.5761 15.8021 32.3443 15.0362 32.3443 13.5044C32.3443 12.6669 32.1167 11.9947 31.6615 11.4878C31.2177 10.9808 30.5633 10.7274 29.6985 10.7274C29.2888 10.7274 28.9474 10.7384 28.6743 10.7604V14.7773C28.6743 15.0307 28.7084 15.2291 28.7767 15.3723C28.845 15.5156 28.9759 15.6258 29.1693 15.7029C29.3628 15.7691 29.6529 15.8021 30.0399 15.8021Z" fill="white"/>
<path d="M80.5174 5.78488C80.5401 5.78488 80.5515 5.81794 80.5515 5.88406C80.5515 5.95018 80.5401 5.98324 80.5174 5.98324C80.0622 5.98324 79.7094 6.14303 79.4591 6.46261C79.2087 6.77117 79.0835 7.21748 79.0835 7.80155V16.3476C79.0835 16.3807 79.0551 16.4027 78.9982 16.4137C78.9413 16.4248 78.9015 16.4192 78.8787 16.3972L70.873 7.3883V14.116C70.873 14.7001 70.9925 15.1464 71.2315 15.455C71.4705 15.7636 71.8176 15.9178 72.2728 15.9178C72.2955 15.9178 72.3069 15.9509 72.3069 16.017C72.3069 16.0831 72.2955 16.1162 72.2728 16.1162C71.9655 16.1162 71.7322 16.1107 71.5729 16.0997L70.6682 16.0831L69.6611 16.0997C69.479 16.1107 69.2173 16.1162 68.8759 16.1162C68.8418 16.1162 68.8247 16.0831 68.8247 16.017C68.8247 15.9509 68.8418 15.9178 68.8759 15.9178C69.3652 15.9178 69.7408 15.7636 70.0025 15.455C70.2756 15.1464 70.4122 14.7001 70.4122 14.116V6.87586C70.0935 6.54526 69.8033 6.31384 69.5416 6.1816C69.2913 6.04936 69.0295 5.98324 68.7564 5.98324C68.7336 5.98324 68.7223 5.95018 68.7223 5.88406C68.7223 5.81794 68.7336 5.78488 68.7564 5.78488L69.4392 5.80141C69.5871 5.81243 69.7977 5.81794 70.0708 5.81794L71.1632 5.80141C71.2998 5.79039 71.4648 5.78488 71.6582 5.78488C71.7493 5.78488 71.8176 5.80692 71.8631 5.851C71.9086 5.89508 71.9769 5.98324 72.0679 6.11548C72.2614 6.36894 72.4036 6.54526 72.4947 6.64444L78.6227 13.6532V7.80155C78.6227 7.21748 78.5032 6.77117 78.2642 6.46261C78.0252 6.14303 77.6838 5.98324 77.24 5.98324C77.2172 5.98324 77.2059 5.95018 77.2059 5.88406C77.2059 5.81794 77.2172 5.78488 77.24 5.78488L77.9399 5.80141C78.304 5.82345 78.6056 5.83447 78.8445 5.83447C79.0721 5.83447 79.3794 5.82345 79.7663 5.80141L80.5174 5.78488Z" fill="white"/>
<path d="M92.9171 15.9178C92.974 15.9178 93.0025 15.9509 93.0025 16.017C93.0025 16.0831 92.974 16.1162 92.9171 16.1162C92.7009 16.1162 92.3538 16.1052 91.8759 16.0831C91.3979 16.0611 91.0508 16.0501 90.8346 16.0501C90.5501 16.0501 90.2144 16.0611 89.8275 16.0831C89.4406 16.1052 89.139 16.1162 88.9228 16.1162C88.8773 16.1162 88.8546 16.0831 88.8546 16.017C88.8546 15.9509 88.8773 15.9178 88.9228 15.9178C89.2528 15.9178 89.4918 15.8848 89.6398 15.8187C89.7991 15.7415 89.8787 15.6203 89.8787 15.455C89.8787 15.2897 89.782 15.0087 89.5885 14.612L87.745 10.9919H84.6554L83.3411 13.8516C83.1931 14.1822 83.1192 14.4797 83.1192 14.7442C83.1192 15.1299 83.2614 15.4219 83.5459 15.6203C83.8304 15.8187 84.2287 15.9178 84.7408 15.9178C84.7977 15.9178 84.8261 15.9509 84.8261 16.017C84.8261 16.0831 84.7977 16.1162 84.7408 16.1162C84.5359 16.1162 84.2401 16.1052 83.8532 16.0831C83.4207 16.0611 83.0452 16.0501 82.7266 16.0501C82.4193 16.0501 82.0608 16.0611 81.6512 16.0831C81.287 16.1052 80.9855 16.1162 80.7465 16.1162C80.6896 16.1162 80.6611 16.0831 80.6611 16.017C80.6611 15.9509 80.6896 15.9178 80.7465 15.9178C81.0651 15.9178 81.3325 15.8572 81.5488 15.736C81.765 15.6148 81.9755 15.3999 82.1803 15.0913C82.3852 14.7717 82.6298 14.3034 82.9143 13.6863L86.5843 5.6857C86.607 5.65264 86.6583 5.63611 86.7379 5.63611C86.8176 5.63611 86.8631 5.65264 86.8745 5.6857L91.0565 13.8516C91.4548 14.645 91.7848 15.1905 92.0466 15.488C92.3197 15.7746 92.6099 15.9178 92.9171 15.9178ZM84.8432 10.5786H87.5402L86.1234 7.80155L84.8432 10.5786Z" fill="white"/>
<path d="M100.154 6.19813C100.188 6.14303 100.199 6.10997 100.188 6.09895C100.188 6.07691 100.148 6.06589 100.068 6.06589C98.5433 6.06589 97.4281 6.10997 96.7226 6.19813C96.017 6.27527 95.4708 6.4571 95.0839 6.74362C94.697 7.01912 94.3556 7.47646 94.0597 8.11562C94.0597 8.12664 94.037 8.13215 93.9914 8.13215C93.889 8.13215 93.8435 8.11011 93.8549 8.06603L94.5377 5.28897C94.5377 5.27795 94.5604 5.27244 94.6059 5.27244C94.7197 5.27244 94.7653 5.28897 94.7425 5.32203C94.7311 5.35509 94.7254 5.39917 94.7254 5.45427C94.7254 5.58651 94.788 5.67468 94.9132 5.71876C95.0498 5.76284 95.3172 5.78488 95.7155 5.78488H101.946C102.003 5.78488 102.043 5.81243 102.065 5.86753C102.1 5.92263 102.1 5.96671 102.065 5.99977L95.9203 15.6699C95.8748 15.725 95.8577 15.7635 95.8691 15.7856C95.8805 15.7966 95.9203 15.8021 95.9886 15.8021H99.7439C100.404 15.8021 100.979 15.6038 101.468 15.207C101.957 14.8103 102.259 14.3034 102.373 13.6863C102.384 13.6532 102.418 13.6367 102.475 13.6367C102.532 13.6367 102.56 13.6532 102.56 13.6863L102.321 15.984C102.321 16.017 102.304 16.0556 102.27 16.0997C102.247 16.1327 102.213 16.1493 102.168 16.1493C100.472 16.1272 97.7524 16.1162 94.0085 16.1162C93.9516 16.1162 93.9118 16.0942 93.889 16.0501C93.8663 15.995 93.8719 15.9454 93.9061 15.9013L100.154 6.19813Z" fill="white"/>
<path d="M115.321 15.9178C115.378 15.9178 115.406 15.9509 115.406 16.017C115.406 16.0831 115.378 16.1162 115.321 16.1162C115.105 16.1162 114.758 16.1052 114.28 16.0831C113.802 16.0611 113.455 16.0501 113.238 16.0501C112.954 16.0501 112.618 16.0611 112.231 16.0831C111.844 16.1052 111.543 16.1162 111.327 16.1162C111.281 16.1162 111.258 16.0831 111.258 16.017C111.258 15.9509 111.281 15.9178 111.327 15.9178C111.657 15.9178 111.896 15.8848 112.044 15.8187C112.203 15.7415 112.283 15.6203 112.283 15.455C112.283 15.2897 112.186 15.0087 111.992 14.612L110.149 10.9919H107.059L105.745 13.8516C105.597 14.1822 105.523 14.4797 105.523 14.7442C105.523 15.1299 105.665 15.4219 105.95 15.6203C106.234 15.8187 106.633 15.9178 107.145 15.9178C107.202 15.9178 107.23 15.9509 107.23 16.017C107.23 16.0831 107.202 16.1162 107.145 16.1162C106.94 16.1162 106.644 16.1052 106.257 16.0831C105.825 16.0611 105.449 16.0501 105.13 16.0501C104.823 16.0501 104.465 16.0611 104.055 16.0831C103.691 16.1052 103.389 16.1162 103.15 16.1162C103.093 16.1162 103.065 16.0831 103.065 16.017C103.065 15.9509 103.093 15.9178 103.15 15.9178C103.469 15.9178 103.736 15.8572 103.953 15.736C104.169 15.6148 104.379 15.3999 104.584 15.0913C104.789 14.7717 105.034 14.3034 105.318 13.6863L108.988 5.6857C109.011 5.65264 109.062 5.63611 109.142 5.63611C109.221 5.63611 109.267 5.65264 109.278 5.6857L113.46 13.8516C113.859 14.645 114.189 15.1905 114.45 15.488C114.724 15.7746 115.014 15.9178 115.321 15.9178ZM107.247 10.5786H109.944L108.527 7.80155L107.247 10.5786Z" fill="white"/>
<path d="M127.252 15.9178C127.286 15.9178 127.303 15.9509 127.303 16.017C127.303 16.0831 127.286 16.1162 127.252 16.1162H124.503C124.242 16.1162 123.752 15.6589 123.035 14.7442C122.33 13.8185 121.465 12.5292 120.441 10.8761C120.259 10.9092 120.071 10.9257 119.878 10.9257C119.456 10.9257 119.161 10.9202 118.99 10.9092V14.7773C118.99 15.1189 119.018 15.3668 119.075 15.5211C119.144 15.6754 119.263 15.7801 119.434 15.8352C119.616 15.8903 119.9 15.9178 120.287 15.9178C120.31 15.9178 120.321 15.9509 120.321 16.017C120.321 16.0831 120.31 16.1162 120.287 16.1162C119.912 16.1162 119.621 16.1107 119.417 16.0997L118.153 16.0831L116.924 16.0997C116.708 16.1107 116.412 16.1162 116.037 16.1162C116.003 16.1162 115.986 16.0831 115.986 16.017C115.986 15.9509 116.003 15.9178 116.037 15.9178C116.424 15.9178 116.703 15.8903 116.873 15.8352C117.055 15.7801 117.181 15.6754 117.249 15.5211C117.317 15.3558 117.351 15.1079 117.351 14.7773V7.12381C117.351 6.79321 117.317 6.55077 117.249 6.39649C117.192 6.24221 117.072 6.13752 116.89 6.08242C116.708 6.0163 116.429 5.98324 116.054 5.98324C116.031 5.98324 116.02 5.95018 116.02 5.88406C116.02 5.81794 116.031 5.78488 116.054 5.78488L116.942 5.80141C117.442 5.82345 117.846 5.83447 118.153 5.83447C118.495 5.83447 118.853 5.81794 119.229 5.78488C119.365 5.77386 119.53 5.76284 119.724 5.75182C119.917 5.7408 120.128 5.73529 120.355 5.73529C121.368 5.73529 122.148 5.91712 122.694 6.28078C123.24 6.64444 123.513 7.15687 123.513 7.81808C123.513 8.33602 123.354 8.82642 123.035 9.28926C122.717 9.7521 122.301 10.1268 121.789 10.4133C122.722 11.8018 123.502 12.8928 124.128 13.6863C124.765 14.4687 125.328 15.0362 125.818 15.3889C126.307 15.7415 126.785 15.9178 127.252 15.9178ZM118.99 10.4464C119.263 10.4904 119.593 10.5125 119.98 10.5125C120.663 10.5125 121.141 10.3637 121.414 10.0662C121.687 9.76863 121.823 9.22314 121.823 8.42969C121.823 7.53707 121.67 6.91994 121.363 6.57832C121.055 6.22568 120.623 6.04936 120.065 6.04936C119.656 6.04936 119.371 6.1265 119.212 6.28078C119.064 6.43506 118.99 6.72709 118.99 7.15687V10.4464Z" fill="white"/>
<path d="M135.452 13.5375C135.452 13.5155 135.475 13.5044 135.521 13.5044C135.555 13.5044 135.583 13.5155 135.606 13.5375C135.64 13.5485 135.657 13.5595 135.657 13.5706C135.543 14.4081 135.486 15.174 135.486 15.8682C135.486 15.9564 135.469 16.0225 135.435 16.0666C135.401 16.0997 135.333 16.1162 135.23 16.1162H127.822C127.788 16.1162 127.771 16.0831 127.771 16.017C127.771 15.9509 127.788 15.9178 127.822 15.9178C128.209 15.9178 128.488 15.8903 128.659 15.8352C128.841 15.7801 128.96 15.6754 129.017 15.5211C129.085 15.3558 129.12 15.1079 129.12 14.7773V7.12381C129.12 6.79321 129.085 6.55077 129.017 6.39649C128.96 6.24221 128.841 6.13752 128.659 6.08242C128.477 6.0163 128.198 5.98324 127.822 5.98324C127.788 5.98324 127.771 5.95018 127.771 5.88406C127.771 5.81794 127.788 5.78488 127.822 5.78488H134.923C135.037 5.78488 135.094 5.83447 135.094 5.93365L135.128 8.08256C135.128 8.1046 135.094 8.12113 135.026 8.13215C134.969 8.14317 134.935 8.13215 134.923 8.09909C134.65 6.8428 133.859 6.21466 132.551 6.21466H131.868C131.458 6.21466 131.168 6.28629 130.997 6.42955C130.826 6.57281 130.741 6.81525 130.741 7.15687V10.529H132.38C133.632 10.529 134.257 10.1213 134.257 9.30579C134.257 9.27273 134.286 9.2562 134.343 9.2562C134.411 9.2562 134.445 9.27273 134.445 9.30579L134.428 10.7439L134.445 11.5208C134.468 11.8735 134.479 12.16 134.479 12.3804C134.479 12.4024 134.445 12.4134 134.377 12.4134C134.309 12.4134 134.275 12.4024 134.275 12.3804C134.275 11.4327 133.637 10.9588 132.363 10.9588H130.741V14.7111C130.741 15.0748 130.809 15.3283 130.946 15.4715C131.094 15.6148 131.35 15.6864 131.714 15.6864H132.551C134.075 15.6864 135.043 14.9701 135.452 13.5375Z" fill="white"/>
<path d="M147.809 5.78488C147.843 5.78488 147.86 5.81794 147.86 5.88406C147.86 5.95018 147.843 5.98324 147.809 5.98324C147.399 5.98324 147.023 6.13201 146.682 6.42955C146.341 6.72709 146.062 7.15688 145.846 7.7189L142.534 16.0997C142.523 16.1437 142.46 16.1658 142.346 16.1658C142.233 16.1658 142.17 16.1437 142.159 16.0997L137.84 7.15687C137.635 6.74913 137.43 6.45159 137.225 6.26425C137.021 6.07691 136.776 5.98324 136.491 5.98324C136.457 5.98324 136.44 5.95018 136.44 5.88406C136.44 5.81794 136.457 5.78488 136.491 5.78488L136.935 5.80141C137.186 5.82345 137.47 5.83447 137.789 5.83447C138.585 5.83447 139.302 5.82345 139.94 5.80141C140.122 5.79039 140.355 5.78488 140.639 5.78488C140.673 5.78488 140.691 5.81794 140.691 5.88406C140.691 5.95018 140.673 5.98324 140.639 5.98324C139.922 5.98324 139.564 6.22568 139.564 6.71056C139.564 6.8979 139.621 7.10728 139.735 7.33871L142.91 13.9177L145.402 7.65278C145.504 7.3883 145.555 7.15136 145.555 6.94198C145.555 6.63342 145.447 6.39649 145.231 6.23119C145.026 6.06589 144.713 5.98324 144.292 5.98324C144.258 5.98324 144.241 5.95018 144.241 5.88406C144.241 5.81794 144.258 5.78488 144.292 5.78488L145.112 5.80141C145.544 5.82345 145.942 5.83447 146.306 5.83447C146.523 5.83447 146.79 5.82345 147.109 5.80141L147.809 5.78488Z" fill="white"/>
<path d="M151.463 14.7773C151.463 15.1189 151.492 15.3668 151.549 15.5211C151.606 15.6754 151.719 15.7801 151.89 15.8352C152.072 15.8903 152.357 15.9178 152.744 15.9178C152.778 15.9178 152.795 15.9509 152.795 16.017C152.795 16.0831 152.778 16.1162 152.744 16.1162C152.379 16.1162 152.089 16.1107 151.873 16.0997L150.61 16.0831L149.381 16.0997C149.165 16.1107 148.869 16.1162 148.493 16.1162C148.459 16.1162 148.442 16.0831 148.442 16.017C148.442 15.9509 148.459 15.9178 148.493 15.9178C148.88 15.9178 149.159 15.8903 149.33 15.8352C149.512 15.7801 149.637 15.6754 149.705 15.5211C149.773 15.3558 149.808 15.1079 149.808 14.7773V7.12381C149.808 6.79321 149.773 6.55077 149.705 6.39649C149.637 6.24221 149.512 6.13752 149.33 6.08242C149.159 6.0163 148.88 5.98324 148.493 5.98324C148.459 5.98324 148.442 5.95018 148.442 5.88406C148.442 5.81794 148.459 5.78488 148.493 5.78488L149.381 5.80141C149.882 5.82345 150.291 5.83447 150.61 5.83447C150.963 5.83447 151.389 5.82345 151.89 5.80141L152.744 5.78488C152.778 5.78488 152.795 5.81794 152.795 5.88406C152.795 5.95018 152.778 5.98324 152.744 5.98324C152.368 5.98324 152.089 6.0163 151.907 6.08242C151.736 6.14854 151.617 6.26425 151.549 6.42955C151.492 6.58383 151.463 6.82627 151.463 7.15687V14.7773Z" fill="white"/>
<path d="M160.679 5.60304C161.191 5.60304 161.72 5.64712 162.266 5.73529C162.824 5.82345 163.262 5.94467 163.581 6.09895C163.683 6.13201 163.746 6.17609 163.768 6.23119C163.802 6.27527 163.825 6.35792 163.837 6.47914L164.041 8.62805C164.041 8.66111 164.013 8.68315 163.956 8.69417C163.899 8.70519 163.865 8.68866 163.854 8.64458C163.524 7.78502 163.023 7.12932 162.352 6.6775C161.691 6.22568 160.912 5.99977 160.013 5.99977C158.829 5.99977 157.902 6.402 157.231 7.20646C156.559 8.01093 156.224 9.0909 156.224 10.4464C156.224 11.4602 156.406 12.3914 156.77 13.24C157.145 14.0885 157.657 14.7607 158.306 15.2566C158.966 15.7525 159.7 16.0005 160.508 16.0005C162.044 16.0005 163.211 15.0748 164.007 13.2234C164.019 13.1793 164.053 13.1628 164.11 13.1738C164.178 13.1849 164.212 13.2069 164.212 13.24L163.956 15.3558C163.933 15.488 163.905 15.5762 163.871 15.6203C163.848 15.6533 163.785 15.6919 163.683 15.736C162.693 16.1217 161.64 16.3146 160.525 16.3146C159.137 16.3146 157.982 16.0501 157.06 15.5211C156.138 14.9811 155.455 14.2979 155.012 13.4714C154.579 12.6449 154.363 11.7853 154.363 10.8927C154.363 9.85679 154.653 8.93662 155.233 8.13215C155.825 7.32769 156.605 6.70505 157.572 6.26425C158.539 5.82345 159.575 5.60304 160.679 5.60304Z" fill="white"/>
<path d="M177.389 15.9178C177.423 15.9178 177.44 15.9509 177.44 16.017C177.44 16.0831 177.423 16.1162 177.389 16.1162C177.002 16.1162 176.689 16.1107 176.45 16.0997L175.204 16.0831L173.753 16.0997C173.548 16.1107 173.275 16.1162 172.934 16.1162C172.9 16.1162 172.883 16.0831 172.883 16.017C172.883 15.9509 172.9 15.9178 172.934 15.9178C173.366 15.9178 173.679 15.8903 173.873 15.8352C174.066 15.7801 174.197 15.6754 174.265 15.5211C174.333 15.3668 174.368 15.1189 174.368 14.7773V10.9588H168.513V14.7773C168.513 15.1079 168.547 15.3558 168.615 15.5211C168.683 15.6754 168.814 15.7801 169.008 15.8352C169.213 15.8903 169.531 15.9178 169.964 15.9178C169.986 15.9178 169.998 15.9509 169.998 16.017C169.998 16.0831 169.986 16.1162 169.964 16.1162C169.577 16.1162 169.275 16.1107 169.059 16.0997L167.642 16.0831L166.396 16.0997C166.18 16.1107 165.878 16.1162 165.491 16.1162C165.469 16.1162 165.457 16.0831 165.457 16.017C165.457 15.9509 165.469 15.9178 165.491 15.9178C165.901 15.9178 166.203 15.8903 166.396 15.8352C166.59 15.7801 166.72 15.6754 166.789 15.5211C166.857 15.3558 166.891 15.1079 166.891 14.7773V7.12381C166.891 6.79321 166.857 6.55077 166.789 6.39649C166.72 6.24221 166.59 6.13752 166.396 6.08242C166.203 6.0163 165.907 5.98324 165.508 5.98324C165.486 5.98324 165.474 5.95018 165.474 5.88406C165.474 5.81794 165.486 5.78488 165.508 5.78488L166.413 5.80141C166.937 5.82345 167.346 5.83447 167.642 5.83447C168.04 5.83447 168.513 5.82345 169.059 5.80141L169.964 5.78488C169.986 5.78488 169.998 5.81794 169.998 5.88406C169.998 5.95018 169.986 5.98324 169.964 5.98324C169.543 5.98324 169.23 6.0163 169.025 6.08242C168.831 6.14854 168.695 6.26425 168.615 6.42955C168.547 6.58383 168.513 6.82627 168.513 7.15687V10.529H174.368V7.15687C174.368 6.82627 174.333 6.58383 174.265 6.42955C174.197 6.26425 174.06 6.14854 173.855 6.08242C173.662 6.0163 173.355 5.98324 172.934 5.98324C172.9 5.98324 172.883 5.95018 172.883 5.88406C172.883 5.81794 172.9 5.78488 172.934 5.78488L173.753 5.80141C174.299 5.82345 174.783 5.83447 175.204 5.83447C175.511 5.83447 175.927 5.82345 176.45 5.80141L177.389 5.78488C177.423 5.78488 177.44 5.81794 177.44 5.88406C177.44 5.95018 177.423 5.98324 177.389 5.98324C176.979 5.98324 176.678 6.0163 176.484 6.08242C176.302 6.13752 176.177 6.24221 176.109 6.39649C176.04 6.55077 176.006 6.79321 176.006 7.12381V14.7773C176.006 15.1079 176.04 15.3558 176.109 15.5211C176.177 15.6754 176.302 15.7801 176.484 15.8352C176.678 15.8903 176.979 15.9178 177.389 15.9178Z" fill="white"/>
<path d="M181.669 14.7773C181.669 15.1189 181.697 15.3668 181.754 15.5211C181.811 15.6754 181.925 15.7801 182.095 15.8352C182.277 15.8903 182.562 15.9178 182.949 15.9178C182.983 15.9178 183 15.9509 183 16.017C183 16.0831 182.983 16.1162 182.949 16.1162C182.585 16.1162 182.294 16.1107 182.078 16.0997L180.815 16.0831L179.586 16.0997C179.37 16.1107 179.074 16.1162 178.698 16.1162C178.664 16.1162 178.647 16.0831 178.647 16.017C178.647 15.9509 178.664 15.9178 178.698 15.9178C179.085 15.9178 179.364 15.8903 179.535 15.8352C179.717 15.7801 179.842 15.6754 179.91 15.5211C179.979 15.3558 180.013 15.1079 180.013 14.7773V7.12381C180.013 6.79321 179.979 6.55077 179.91 6.39649C179.842 6.24221 179.717 6.13752 179.535 6.08242C179.364 6.0163 179.085 5.98324 178.698 5.98324C178.664 5.98324 178.647 5.95018 178.647 5.88406C178.647 5.81794 178.664 5.78488 178.698 5.78488L179.586 5.80141C180.087 5.82345 180.496 5.83447 180.815 5.83447C181.168 5.83447 181.595 5.82345 182.095 5.80141L182.949 5.78488C182.983 5.78488 183 5.81794 183 5.88406C183 5.95018 182.983 5.98324 182.949 5.98324C182.573 5.98324 182.294 6.0163 182.112 6.08242C181.942 6.14854 181.822 6.26425 181.754 6.42955C181.697 6.58383 181.669 6.82627 181.669 7.15687V14.7773Z" fill="white"/>
<path d="M51.0251 7.40435L48.5193 5.80325L53.5308 5.80325L51.0251 7.40435Z" fill="#F21F85"/>
<path d="M48.3387 14.5852L49.9804 19.9952L42.5167 14.4906L48.3387 14.5852Z" fill="#F28E19"/>
<path d="M53.6098 5.6075L51.792 0.0199106L59.6511 5.91197L53.6098 5.6075Z" fill="#F21F85"/>
<path d="M45.3761 10.2063L42.4827 14.2505V6.16205L45.3761 10.2063Z" fill="#EF1C35"/>
<path d="M56.6739 10.2063L59.5673 6.16205V14.2505L56.6739 10.2063Z" fill="#FCFF51"/>
<path d="M53.6224 14.549L59.5948 14.5582L51.6261 20L53.6224 14.549Z" fill="#15D0BA"/>
<path d="M48.5195 5.62897L42.2865 5.79773L50.7763 0L48.5195 5.62897Z" fill="#EC5312"/>
<path d="M53.5044 8.57491L53.6003 5.83662L56.2241 9.70696L53.5044 8.57491Z" fill="#EC5312"/>
<path d="M48.485 11.5396L48.3713 14.2772L45.7726 10.3911L48.485 11.5396Z" fill="#FCFF51"/>
<path d="M51.025 12.7414L53.5307 14.3425H48.5192L51.025 12.7414Z" fill="#15D0BA"/>
<path d="M53.4497 11.5502L56.1417 10.3384L53.6126 14.2839L53.4497 11.5502Z" fill="#EF1C35"/>
<path d="M48.5589 8.56462L45.8592 9.76017L48.4137 5.83004L48.5589 8.56462Z" fill="#F28E19"/>
</svg>
