<svg width="24" height="24" viewBox="0 0 24 24" fill="none" xmlns="http://www.w3.org/2000/svg">
<path d="M19.465 24C19.2703 23.9994 19.0763 23.9776 18.8861 23.9348C15.2665 23.1691 11.9318 21.3737 9.26585 18.7553C6.65684 16.1312 4.84735 12.7901 4.05631 9.13623C3.96304 8.68086 3.98593 8.20859 4.12279 7.76488C4.25965 7.32117 4.50586 6.92095 4.83774 6.60271L7.1531 4.32372C7.27136 4.20935 7.41187 4.12177 7.56547 4.06669C7.71907 4.01161 7.8823 3.99028 8.04451 4.00407C8.2127 4.02202 8.375 4.07742 8.52 4.1664C8.66501 4.25537 8.78919 4.37575 8.88382 4.51907L11.778 8.89354C11.8865 9.06327 11.9389 9.26415 11.9275 9.46662C11.916 9.66908 11.8413 9.86244 11.7143 10.0182L10.2615 11.7941C10.8401 13.1037 11.6595 14.2874 12.6752 15.2806C13.6843 16.3099 14.877 17.1317 16.1888 17.7017L17.9889 16.2396C18.1401 16.1174 18.3241 16.0451 18.5164 16.0324C18.7087 16.0197 18.9003 16.0672 19.0656 16.1685L23.4358 19.0572C23.5858 19.1488 23.7135 19.2739 23.8095 19.4231C23.9055 19.5724 23.9672 19.7419 23.9901 19.919C24.0129 20.0961 23.9962 20.2761 23.9414 20.4457C23.8865 20.6153 23.7948 20.77 23.6731 20.8982L21.4157 23.1831C21.1592 23.444 20.8549 23.6505 20.5201 23.7907C20.1853 23.9309 19.8267 24.002 19.465 24ZM7.95189 5.17612L5.63654 7.45511C5.44984 7.63302 5.31163 7.85756 5.23551 8.10665C5.15939 8.35575 5.14799 8.62081 5.20241 8.87578C5.93795 12.3044 7.62874 15.4418 10.0704 17.9088C12.5792 20.3723 15.7174 22.061 19.1235 22.7806C19.3813 22.8357 19.6484 22.8245 19.901 22.7481C20.1536 22.6716 20.3836 22.5323 20.5706 22.3425L22.828 20.0576L18.6083 17.2695L16.675 18.8441C16.601 18.904 16.5138 18.9445 16.4209 18.9621C16.3281 18.9796 16.2325 18.9737 16.1424 18.9448C14.5372 18.3399 13.0824 17.3798 11.8822 16.133C10.6408 14.9475 9.67719 13.4906 9.06326 11.871C9.03729 11.773 9.03643 11.6697 9.06076 11.5712C9.08508 11.4728 9.13379 11.3823 9.20218 11.3087L10.765 9.39669L7.95189 5.17612Z" fill="#00CDAC"/>
</svg>
